# xmcd
#
# Track frame offsets:
#	150
#	17457
#	29858
#	41706
#	62761
#	75791
#	91151
#	109385
#	124159
#	140402
#	153025
#
# Disc length: 2306 seconds
#
# Revision: 1
# Processed by: cddbd v1.5.2PL0 Copyright (c) Steve Scherf et al.
# Submitted via: audiograbber 1.83.01
#
DISCID=8409000b
DTITLE=Insolence - Audio War
DYEAR=2007
DGENRE=Rock
TTITLE0=Danger
TTITLE1=Megumi
TTITLE2=Kobra Kai
TTITLE3=Blue Sky
TTITLE4=Liberation
TTITLE5=Kyodai
TTITLE6=Socialator
TTITLE7=Yoga Fire
TTITLE8=Joshua
TTITLE9=Shine
TTITLE10=BMD
EXTD=
EXTT0=
EXTT1=
EXTT2=
EXTT3=
EXTT4=
EXTT5=
EXTT6=
EXTT7=
EXTT8=
EXTT9=
EXTT10=
PLAYORDER=
